<svg version="1" xmlns="http://www.w3.org/2000/svg" width="1365.333" height="1365.333" viewBox="0 0 1024.000000 1024.000000"><path d="M599.3 5.7c-.5.1-13.8.4-29.8.7-15.9.2-30.3.7-32 1-1.6.4-5.5 1.1-8.5 1.7-7.6 1.5-21.1 6.5-29.9 11.1-14.2 7.5-29.2 20.5-39.6 34.3-9.3 12.4-19.2 35.8-21.1 50-.3 2.7-.8 5.4-1.1 5.8-.4.7-.5 45.3 0 109.9l.1 21.8 3.1.1c1.6 0 14.3 0 28-.1 100.9-.6 102.8-.7 116.5-4.7 3-.9 6-1.7 6.5-1.8 1.2-.1 3-.9 12.4-5.1 20.7-9.4 39.9-27 52.3-47.9 5.6-9.3 11.9-26.1 13.4-35.1.3-2 .8-4.6 1.2-5.8.7-2.5.9-134.4.2-135.5-.4-.6-69.4-1-71.7-.4zM159.9 7.8c-.4 11.4 0 123.4.5 128.2 3.9 38.6 28.4 74.4 63.1 92.2 12.9 6.5 23.6 10.1 38 12.4 4.4.8 130.2 1.3 132.3.6 1.9-.7 1.6-126.8-.4-137.2-4.1-21.6-14.3-42.8-27.9-57.9-16.3-18.2-38.9-31.7-61-36.5-3.8-.9-8.3-1.9-10-2.2-1.6-.4-32.6-.8-68.7-1-60.7-.2-65.8-.1-65.9 1.4zM272.7 282.6c-.1.1-3.1.5-6.7.8-22.5 2.1-43.1 10.4-62 24.9-18.4 14.2-31.6 32.9-39.4 56.1-3.4 9.8-4.1 12.9-5.5 24.7-.4 3.1-.6 36.4-.4 74 .1 37.6.5 178 .7 311.9l.5 243.5h252.8c224.2-.1 267.5-.4 277.3-1.9 1.4-.3 5.6-.7 9.5-1.1 3.8-.4 7.2-.8 7.5-1 .3-.1 3-.6 6.1-.9 5.6-.7 7.9-1 12.9-2.1 1.4-.3 3.5-.7 4.8-1 1.3-.2 3.1-.6 4-.9.9-.3 3.1-.8 4.7-1 9.5-1.7 34-10.9 46.5-17.4 6.7-3.6 26.9-16.6 30.6-19.8 1.2-1.1 4.4-3.8 7-6 24.9-21.2 49.6-56.7 59.9-85.9.9-2.8 2.1-5.9 2.6-7 2.2-5.4 7.2-26.5 8.4-36 .3-2.8.9-7.6 1.4-10.7.8-6.4.7-41.4-.2-46.8-.4-1.9-1.1-7.1-1.7-11.5-2.9-22.2-13.3-51.5-24.3-68.8-2.1-3.2-3.7-6.2-3.7-6.7 0-.6-.4-1-.8-1s-1.6-1.4-2.6-3.2c-2.3-3.8-3.2-4.9-11.7-14.7-10.7-12.3-24.3-24.3-38.9-34.2-3.6-2.4-6.7-4.6-7-4.9-.6-.6-1.6-1.2-14.5-8.5-4.9-2.8-12-6.6-15.7-8.4l-6.6-3.4 4.6-3.5c9.5-7.2 28.6-25.7 35.9-34.7C818 564 831 541.2 833.5 532c.3-1.4 1-3.4 1.5-4.5 2.3-5.5 5.6-20.5 7.5-34.5.8-5.4.9-36.3.1-40.5-.3-1.7-.8-5-1.1-7.5-.4-2.5-.8-5.4-.9-6.5-.2-1.1-.6-2.9-.9-4-.3-1.1-.9-3.6-1.2-5.5-1.1-6.6-7.5-24.3-12.6-34.6-12.5-25.4-32.1-48.4-56.4-66-8.2-5.9-21.6-13.8-30-17.8-8.8-4.1-24.4-10.4-27.8-11.1-1-.2-5.5-1.5-10-2.9-9.7-2.9-24.8-6-36.7-7.6-4.7-.6-9.8-1.3-11.5-1.5-13.5-1.8-32.9-3.1-60.5-4.1-19.1-.7-153-1.2-156.5-.6-2 .3-2 1.1-2 66.2 0 36.2.3 66.1.6 66.5.3.3 45.1.7 99.5.9 54.4.2 100 .6 101.4.9 1.4.3 4.1.8 6 1.2 29.6 5.4 49.4 18.9 59.4 40.6 7.3 15.9 8.9 37.5 4.1 54.9-1.5 5.2-2.2 7.2-3.8 11-6.4 14.5-20.2 28.5-34.7 35.3-6.1 2.8-17.4 6.8-20.5 7.2-1.1.2-6 1.1-11 2.1-8.1 1.5-18.5 1.7-105 1.9l-96 .2-.2 62.5-.2 62.6 92.7.1c51 0 96.3.3 100.7.6 17.5 1.3 20.4 1.6 30 3 13.9 2.1 27.3 5.4 39 9.5 1.1.4 5.2 2.2 9 4 27.7 12.9 46.5 36.2 52 64.5.3 1.6.8 4.1 1.1 5.5 1 4.6.5 27.4-.6 32.5-.7 2.7-1.4 6-1.6 7.3-2.1 11-11.9 26.4-22.5 35.3-11.9 10.2-30.5 17.5-53.9 21.4-1.9.3-4.6.7-6 1-3.8.7-9.7 1.3-17.5 2-3.8.3-9.9.8-13.5 1.1-3.6.4-60.8.7-127.3.8l-120.7.1V584.2c0-165.6-.3-301.2-.7-301.3-1.8-.1-121.5-.4-121.6-.3z"/></svg>